# xmcd
#
# Track frame offsets: 
#        150
#        15625
#        30153
#        44538
#        60407
#        76233
#        91276
#        106671
#        119511
#        134304
#        147245
#        161305
#        173976
#        189673
#        202682
#        216283
#        230547
#        244061
#        258075
#        271129
#        284876
#        299165
#        313099
#        327982
#
# Disc length: 4562 seconds
#
# Revision: 3
# Processed by: cddbd v1.5.2PL0 Copyright (c) Steve Scherf et al.
# Submitted via: ExactAudioCopyFreeDBPlugin 1.0
#
DISCID=5911d018
DTITLE=Charlie Poole - Charlie Poole and the Roots of Country Music (Dis
DTITLE=c 1)
DYEAR=2005
DGENRE=Old- Timey String Bands
TTITLE0=Charlie Poole with the North Carolina Ramblers - Shootin' Cree
TTITLE0=k
TTITLE1=Charlie Poole with the North Carolina Ramblers - Baltimore Fir
TTITLE1=e
TTITLE2=Charlie Poole with the North Carolina Ramblers - Leaving Home
TTITLE3=Charlie Poole with the North Carolina Ramblers - here'll Come 
TTITLE3=a Time
TTITLE4=Charlie Poole with the North Carolina Ramblers - White House B
TTITLE4=lues
TTITLE5=Charlie Poole with the North Carolina Ramblers - The Highwayma
TTITLE5=n
TTITLE6=Charlie Poole with the North Carolina Ramblers - Hungry Hash H
TTITLE6=ouse
TTITLE7=Charlie Poole with the North Carolina Ramblers - The Letter Th
TTITLE7=at Never Came
TTITLE8=Charlie Poole with the North Carolina Ramblers - Take a Drink 
TTITLE8=On Me
TTITLE9=Charlie Poole with the North Carolina Ramblers - Husband and W
TTITLE9=ife Were Angry One Night
TTITLE10=Charlie Poole with the North Carolina Ramblers - Ramblin' Blu
TTITLE10=es
TTITLE11=Charlie Poole with the North Carolina Ramblers - Took My Gal 
TTITLE11=A-Walkin'
TTITLE12=Charlie Poole with the North Carolina Ramblers - Old and Only
TTITLE12=In The Way
TTITLE13=Charlie Poole with the North Carolina Ramblers - Don't Let Yo
TTITLE13=ur Deal Go Down Blues
TTITLE14=Charlie Poole with the North Carolina Ramblers - Bill Mason
TTITLE15=Posey Rorer and the North Carolina Ramblers   - A Kiss Waltz
TTITLE16=Charlie Poole with The Highlanders - Flop Eared Mule
TTITLE17=Charlie Poole with Allegheny Highlanders - A Trip To New York
TTITLE17=Part 1
TTITLE18=Charlie Poole with the North Carolina Ramblers - Sweet Sixtee
TTITLE18=n
TTITLE19=Charlie Poole with the North Carolina Ramblers - Write a Lett
TTITLE19=er to My Mother
TTITLE20=Charlie Poole with the North Carolina Ramblers - If the River
TTITLE20=was Whiskey
TTITLE21=Charlie Poole with the North Carolina Ramblers - Mother's Las
TTITLE21=t Farewell Kiss
TTITLE22=Charlie Poole with the North Carolina Ramblers - Milwaukee Bl
TTITLE22=ues
TTITLE23=Charlie Poole with the North Carolina Ramblers - Where the Wh
TTITLE23=ippoorwill is Whispering Good-Night
EXTD=
EXTT0=
EXTT1=
EXTT2=
EXTT3=
EXTT4=
EXTT5=
EXTT6=
EXTT7=
EXTT8=
EXTT9=
EXTT10=
EXTT11=
EXTT12=
EXTT13=
EXTT14=
EXTT15=
EXTT16=
EXTT17=
EXTT18=
EXTT19=
EXTT20=
EXTT21=
EXTT22=
EXTT23=
PLAYORDER=
